<svg width="34" height="34" viewBox="0 0 34 34" fill="none" xmlns="http://www.w3.org/2000/svg">
<path d="M32.039 8.5C32.039 9.51974 32.0228 10.5425 32.0294 11.5622C30.0774 13.0792 27.4406 14.4652 26.2393 15.1623C25.4303 15.6319 24.6142 16.0884 23.8039 16.5567C22.7398 17.1716 21.6805 17.7949 20.6244 18.4234V21.6838C20.7583 21.6086 20.8705 21.5479 20.9807 21.4839C21.3094 21.292 21.6368 21.0974 21.9662 20.9068C22.4556 20.6238 22.9483 20.3454 23.4378 20.0625C23.9462 19.7683 24.4521 19.4701 24.9606 19.176C25.328 18.9636 25.6987 18.7571 26.0648 18.5427C26.6559 18.1965 27.2431 17.8436 27.8356 17.4986C28.3336 17.2084 28.8368 16.9267 29.3361 16.6385C29.8537 16.339 30.3694 16.0356 30.8864 15.7355C31.2158 15.5442 31.5478 15.3569 31.8752 15.1623C31.9126 15.1399 31.9277 15.0812 31.9533 15.039C32.0878 15.0917 32.0235 15.2091 32.0241 15.2942C32.03 16.0712 32.0274 16.8482 32.0274 17.6259C32.0274 17.8878 32.0274 18.149 32.0274 18.4194C31.5288 18.705 31.04 18.982 30.5531 19.2643C30.1785 19.4814 29.8045 19.701 29.4352 19.9272C29.2542 20.0377 29.1221 20.1081 28.93 20.2221C28.6026 20.416 28.2771 20.6132 27.9484 20.8039C27.4498 21.0928 26.9472 21.3751 26.4486 21.6646C25.9598 21.9483 25.4763 22.2411 24.9875 22.5248C24.4987 22.8084 24.0053 23.0848 23.5152 23.3664C22.9496 23.6916 22.3854 24.0181 21.8218 24.3472C21.4839 24.5444 21.1539 24.7555 20.8101 24.9428C20.652 25.0286 20.6061 25.1341 20.6074 25.3083C20.6166 26.299 20.5534 27.3045 20.631 28.2923C21.0913 28.0935 21.5103 27.8051 21.9438 27.5542C22.7062 27.1129 23.4712 26.6769 24.233 26.2343C25.0511 25.7594 25.8653 25.2779 26.6828 24.803C27.1716 24.5187 27.6657 24.2437 28.1545 23.9594C28.7935 23.588 29.4292 23.2101 30.0683 22.8387C30.31 22.6983 32.0235 21.6685 32.0235 21.8243C32.0274 22.8882 32.0267 23.9521 32.0267 25.0352C31.8785 25.1282 31.7354 25.2238 31.5865 25.3102C31.0977 25.5932 30.6056 25.8709 30.1175 26.1545C29.6294 26.4382 29.1438 26.7264 28.657 27.0133C28.18 27.295 27.7057 27.5799 27.2267 27.8576C26.8219 28.0918 26.4105 28.3141 26.0057 28.5476C25.5445 28.8134 25.0885 29.0865 24.6286 29.3549C24.2907 29.5521 23.9502 29.7441 23.613 29.9413C23.1721 30.1985 22.7344 30.4617 22.2922 30.717C21.6912 31.0633 21.0857 31.4023 20.4847 31.7486C20.0051 32.025 19.5294 32.3086 19.0518 32.5896C18.6207 32.8429 18.191 33.0975 17.758 33.3462C17.6546 31.3846 17.6544 22.2308 17.7258 17.0468C20.9236 15.0385 28.7698 10.4615 32.039 8.5Z" fill="#068AC2"/>
<path d="M32.039 8.5C32.039 9.51974 32.0228 10.5425 32.0294 11.5622C30.0774 13.0792 27.4406 14.4652 26.2393 15.1623C25.4303 15.6319 24.6142 16.0884 23.8039 16.5567C22.7398 17.1716 21.6805 17.7949 20.6244 18.4234V21.6838C20.7583 21.6086 20.8705 21.5479 20.9807 21.4839C21.3094 21.292 21.6368 21.0974 21.9662 20.9068C22.4556 20.6238 22.9483 20.3454 23.4378 20.0625C23.9462 19.7683 24.4521 19.4701 24.9606 19.176C25.328 18.9636 25.6987 18.7571 26.0648 18.5427C26.6559 18.1965 27.2431 17.8436 27.8356 17.4986C28.3336 17.2084 28.8368 16.9267 29.3361 16.6385C29.8537 16.339 30.3694 16.0356 30.8864 15.7355C31.2158 15.5442 31.5478 15.3569 31.8752 15.1623C31.9126 15.1399 31.9277 15.0812 31.9533 15.039C32.0878 15.0917 32.0235 15.2091 32.0241 15.2942C32.03 16.0712 32.0274 16.8482 32.0274 17.6259C32.0274 17.8878 32.0274 18.149 32.0274 18.4194C31.5288 18.705 31.04 18.982 30.5531 19.2643C30.1785 19.4814 29.8045 19.701 29.4352 19.9272C29.2542 20.0377 29.1221 20.1081 28.93 20.2221C28.6026 20.416 28.2771 20.6132 27.9484 20.8039C27.4498 21.0928 26.9472 21.3751 26.4486 21.6646C25.9598 21.9483 25.4763 22.2411 24.9875 22.5248C24.4987 22.8084 24.0053 23.0848 23.5152 23.3664C22.9496 23.6916 22.3854 24.0181 21.8218 24.3472C21.4839 24.5444 21.1539 24.7555 20.8101 24.9428C20.652 25.0286 20.6061 25.1341 20.6074 25.3083C20.6166 26.299 20.5534 27.3045 20.631 28.2923C21.0913 28.0935 21.5103 27.8051 21.9438 27.5542C22.7062 27.1129 23.4712 26.6769 24.233 26.2343C25.0511 25.7594 25.8653 25.2779 26.6828 24.803C27.1716 24.5187 27.6657 24.2437 28.1545 23.9594C28.7935 23.588 29.4292 23.2101 30.0683 22.8387C30.31 22.6983 32.0235 21.6685 32.0235 21.8243C32.0274 22.8882 32.0267 23.9521 32.0267 25.0352C31.8785 25.1282 31.7354 25.2238 31.5865 25.3102C31.0977 25.5932 30.6056 25.8709 30.1175 26.1545C29.6294 26.4382 29.1438 26.7264 28.657 27.0133C28.18 27.295 27.7057 27.5799 27.2267 27.8576C26.8219 28.0918 26.4105 28.3141 26.0057 28.5476C25.5445 28.8134 25.0885 29.0865 24.6286 29.3549C24.2907 29.5521 23.9502 29.7441 23.613 29.9413C23.1721 30.1985 22.7344 30.4617 22.2922 30.717C21.6912 31.0633 21.0857 31.4023 20.4847 31.7486C20.0051 32.025 19.5294 32.3086 19.0518 32.5896C18.6207 32.8429 18.191 33.0975 17.758 33.3462C17.6546 31.3846 17.6544 22.2308 17.7258 17.0468C20.9236 15.0385 28.7698 10.4615 32.039 8.5Z" fill="white" fill-opacity="0.82"/>
<path d="M17.6541 16.9985L3.26953 9.15234V25.4985L5.88492 26.8062V13.7293L9.15415 15.6908V28.7677L11.7695 30.0754V16.9985L14.3849 18.4901V32.037L17.6541 33.7329V16.9985Z" fill="#121F24"/>
<path d="M31.9364 21.9761C31.9364 23.0157 31.9291 24.0618 31.9423 25.108C31.945 25.3275 31.8696 25.4419 31.6877 25.5471C27.1672 28.1492 22.6433 30.7474 18.138 33.3761C17.6301 33.6723 17.2571 33.7001 16.7698 33.3708C16.1244 32.9343 15.432 32.564 14.7476 32.1877C14.5406 32.074 14.4831 31.9417 14.485 31.7195C14.4956 30.7746 14.4897 29.8289 14.4897 28.8191C13.5222 29.3759 12.6024 29.9056 11.6938 30.4287C10.7937 29.9063 9.90564 29.3806 9.00629 28.8753C8.80261 28.7609 8.73781 28.63 8.74112 28.4065C8.75236 27.5799 8.74574 26.7533 8.74641 25.9267C8.74641 25.8083 8.74641 25.6906 8.74641 25.4856C7.76307 26.0523 6.84323 26.582 5.94123 27.1011C5.0723 26.5999 4.21263 26.0893 3.33709 25.6086C3.06067 25.4572 2.96809 25.2885 2.96875 24.9698C2.98066 19.5148 2.97735 14.0606 2.97735 8.61289C3.87604 8.0918 4.77208 7.58128 5.65754 7.05225C5.86452 6.92859 6.02125 6.92661 6.22625 7.05027C6.95168 7.48804 7.68703 7.90862 8.41973 8.33449C8.50305 8.38276 8.59166 8.42244 8.71599 8.4846V5.29522C9.72312 4.71461 10.7031 4.14987 11.6997 3.57588C12.5918 4.0897 13.5057 4.61608 14.4612 5.16561V1.97424C15.3685 1.45249 16.2487 0.962476 17.111 0.442044C17.3775 0.280691 17.5699 0.306481 17.8272 0.456593C21.3763 2.51848 24.932 4.56913 28.4864 6.62242C29.4962 7.20567 30.506 7.78893 31.5171 8.3702C31.65 8.44691 31.7876 8.51436 31.9357 8.59239C31.9357 9.67095 31.9423 10.7607 31.9251 11.8505C31.9238 11.9557 31.7988 12.0952 31.695 12.1574C30.92 12.619 30.135 13.0647 29.354 13.5163C29.2992 13.5481 29.2476 13.5864 29.1497 13.6512C30.0901 14.1928 30.998 14.7152 31.935 15.2548C31.935 16.3407 31.9403 17.4642 31.9251 18.5871C31.9238 18.6823 31.8021 18.8079 31.7049 18.8655C30.873 19.3588 30.0338 19.8402 29.1398 20.3586C30.0934 20.9108 31.0006 21.4359 31.9357 21.9768L31.9364 21.9761ZM20.301 22.1633C20.2627 22.033 20.2402 21.9933 20.2402 21.9537C20.2382 20.9068 20.2329 19.86 20.2462 18.8132C20.2475 18.7213 20.344 18.5983 20.4307 18.5454C21.4219 17.939 22.4125 17.3306 23.4177 16.748C26.121 15.1814 28.8303 13.6254 31.5409 12.0721C31.7155 11.9722 31.7922 11.8671 31.7896 11.6614C31.779 10.8024 31.7863 9.94273 31.7836 9.08306C31.7836 9.00371 31.7624 8.92435 31.7479 8.82186C31.6262 8.89063 31.5403 8.9389 31.455 8.98784C29.7495 9.97315 28.0447 10.9585 26.3392 11.9431C23.5665 13.5441 20.7937 15.1451 18.0203 16.7441C17.6969 16.9305 17.5395 17.158 17.5408 17.5726C17.558 22.7294 17.5521 27.8861 17.5514 33.0421C17.5514 33.1803 17.5514 33.3185 17.5514 33.4918C17.6572 33.4448 17.7081 33.427 17.7544 33.4005C22.3464 30.7488 26.9377 28.0944 31.533 25.4472C31.7208 25.3394 31.7929 25.2244 31.7896 25.0081C31.7777 24.1597 31.7863 23.3113 31.7849 22.4629C31.7849 22.3822 31.7644 22.3008 31.7486 22.1858C27.9052 24.4051 24.0988 26.6025 20.2574 28.8205C20.2468 28.7226 20.2382 28.6829 20.2382 28.6426C20.2376 27.5958 20.231 26.5489 20.2462 25.5028C20.2475 25.3937 20.3513 25.2436 20.4505 25.184C21.3565 24.6411 22.269 24.1108 23.1843 23.5837C25.9676 21.9808 28.7516 20.3791 31.5403 18.7861C31.7334 18.6757 31.7922 18.5527 31.7889 18.3411C31.7777 17.57 31.7843 16.7983 31.7843 16.0272C31.7843 15.8566 31.7843 15.686 31.7843 15.4731C27.9323 17.7175 24.1385 19.9275 20.3004 22.164L20.301 22.1633ZM5.86452 13.5375C5.93197 13.556 5.96504 13.558 5.99083 13.5725C6.90737 14.0969 7.82656 14.618 8.73582 15.1556C8.82378 15.2079 8.89453 15.3593 8.90049 15.4691C8.92032 15.854 8.90908 16.2402 8.90908 16.6257C8.9071 20.5154 8.9071 24.4044 8.89718 28.2941C8.89718 28.5321 8.96132 28.6703 9.17426 28.7887C9.89506 29.1895 10.6033 29.6133 11.3181 30.0253C11.3962 30.0703 11.4848 30.0981 11.6177 30.1556V16.8816C12.5501 17.4199 13.4263 17.9443 14.3217 18.4323C14.6054 18.5871 14.6881 18.761 14.6867 19.0751C14.6702 23.2511 14.6695 27.4265 14.6596 31.6025C14.6596 31.828 14.6927 31.9847 14.9195 32.109C15.6714 32.5217 16.4074 32.9634 17.1513 33.3913C17.2115 33.4256 17.2823 33.4422 17.3808 33.4792C17.3808 33.3218 17.3808 33.2021 17.3808 33.0824C17.3808 27.9257 17.3742 22.769 17.3927 17.613C17.394 17.1726 17.2234 16.9338 16.8809 16.7361C12.3835 14.1399 7.8874 11.5417 3.39065 8.94485C3.32783 8.90848 3.25641 8.886 3.14928 8.83971C3.14928 8.99445 3.14928 9.11348 3.14928 9.23318C3.14928 14.4778 3.15127 19.7225 3.14333 24.9671C3.14333 25.2204 3.21541 25.3599 3.44157 25.4829C4.16634 25.8777 4.8759 26.3003 5.59207 26.7103C5.66349 26.7513 5.74285 26.7777 5.86518 26.832V13.5381L5.86452 13.5375ZM3.25311 8.64198C3.38404 8.72398 3.45612 8.77226 3.53151 8.8159C8.03751 11.42 12.5462 14.0202 17.0462 16.6349C17.3544 16.8142 17.5732 16.8095 17.8788 16.6323C22.2373 14.1035 26.6038 11.5887 30.9676 9.06851C31.1891 8.94022 31.404 8.79937 31.654 8.64463C31.5442 8.5752 31.4814 8.53287 31.4166 8.49518C30.2924 7.8458 29.1676 7.19774 28.0434 6.54769C24.5948 4.55392 21.1462 2.5608 17.7002 0.562398C17.525 0.461222 17.3887 0.461883 17.2155 0.565705C16.5158 0.982976 15.8083 1.38636 15.1033 1.79503C15.0035 1.85257 14.9056 1.9134 14.7615 2.00069C18.6161 4.2279 22.4172 6.4247 26.2725 8.65191C25.3162 9.20606 24.4189 9.71724 23.5321 10.2469C23.3013 10.3851 23.1208 10.3739 22.8946 10.241C21.7374 9.56051 20.5715 8.89394 19.4096 8.22207C16.9239 6.7851 14.4394 5.34548 11.949 3.91578C11.8373 3.85163 11.6402 3.8146 11.5397 3.86949C10.7197 4.3185 9.91291 4.79264 9.1035 5.26149C9.08168 5.27406 9.07506 5.3144 9.0539 5.35738C12.8537 7.55219 16.6468 9.74435 20.5008 11.9709C20.3262 12.0813 20.229 12.1468 20.1278 12.2057C19.3475 12.6586 18.5599 13.0997 17.7888 13.5672C17.5514 13.7114 17.3795 13.7114 17.1361 13.5699C13.4759 11.4379 9.80909 9.31716 6.14094 7.1984C6.05762 7.15013 5.91412 7.10979 5.84535 7.14814C4.99427 7.62691 4.15113 8.12089 3.25443 8.64132L3.25311 8.64198ZM6.06952 13.8192V26.8419C6.9444 26.3393 7.77498 25.8672 8.59695 25.3804C8.66771 25.3388 8.72062 25.2045 8.72062 25.1133C8.72657 21.9318 8.72657 18.7497 8.72062 15.5683C8.72062 15.4744 8.67565 15.3349 8.60621 15.2932C7.77762 14.8005 6.94043 14.3218 6.06952 13.8192ZM31.7029 15.3077C30.834 14.8065 30.0497 14.3628 29.2754 13.9019C29.0717 13.7802 28.915 13.7749 28.7066 13.8992C26.943 14.948 25.1741 15.9869 23.4038 17.0251C22.5031 17.5535 21.6011 18.0805 20.6899 18.591C20.4869 18.7048 20.4181 18.8324 20.4214 19.0579C20.4333 19.8832 20.4254 20.7091 20.4274 21.5351C20.4274 21.627 20.4412 21.7189 20.4538 21.8697C24.2119 19.6775 27.9243 17.5118 31.7029 15.3084V15.3077ZM11.7976 30.1913C12.693 29.6709 13.5315 29.1908 14.3587 28.6908C14.4401 28.6419 14.485 28.4733 14.4857 28.3602C14.4923 25.2442 14.489 22.1282 14.4956 19.0123C14.4956 18.8053 14.4242 18.6962 14.2483 18.6016C13.8608 18.3933 13.4865 18.1619 13.1043 17.943C12.6804 17.7003 12.2539 17.4609 11.7976 17.2023V30.1913ZM20.4267 28.5176C24.2092 26.3327 27.9184 24.1901 31.6593 22.0291C31.5555 21.9583 31.496 21.9127 31.4311 21.8743C30.7097 21.4524 29.9829 21.0384 29.2674 20.6053C29.0618 20.481 28.9097 20.4869 28.7014 20.6099C27.2498 21.463 25.7897 22.3002 24.3322 23.1427C23.1135 23.8476 21.8928 24.5492 20.6786 25.2621C20.5722 25.3242 20.4399 25.4598 20.4379 25.563C20.4194 26.5198 20.4274 27.4767 20.4274 28.5169L20.4267 28.5176ZM14.6636 2.15544C14.6636 3.20027 14.657 4.16773 14.6742 5.13519C14.6755 5.22777 14.8058 5.34812 14.9056 5.40565C17.607 6.97422 20.311 8.5375 23.0209 10.0909C23.1241 10.1497 23.3198 10.1418 23.4269 10.0823C24.1775 9.66698 24.9162 9.23053 25.6568 8.79871C25.7256 8.75903 25.7851 8.70415 25.8783 8.63405C22.1401 6.47495 18.4389 4.33636 14.6636 2.1561V2.15544ZM20.1569 11.9795C16.3895 9.80386 12.6731 7.65799 8.90511 5.48236C8.90511 6.52257 8.89982 7.49003 8.91437 8.45815C8.91569 8.5461 9.03142 8.65984 9.12268 8.71473C9.65038 9.03214 10.1873 9.33634 10.721 9.6445C12.8841 10.893 15.0465 12.1428 17.2128 13.386C17.3147 13.4442 17.4826 13.5104 17.5613 13.4667C18.4151 12.9939 19.2562 12.4999 20.1569 11.9802V11.9795Z" fill="#121F24"/>
<path d="M31.5828 21.6441C31.5828 22.6837 31.5756 23.7298 31.5888 24.776C31.5914 24.9955 31.5161 25.1099 31.3342 25.2151C26.8137 27.8172 22.2898 30.4154 17.7845 33.044C17.2766 33.3403 16.9036 33.368 16.4163 33.0387C15.7709 32.6023 15.0785 32.232 14.3941 31.8557C14.1871 31.7419 14.1295 31.6097 14.1315 31.3875C14.1421 30.4425 14.1362 29.4969 14.1362 28.4871C13.1687 29.0439 12.2488 29.5736 11.3402 30.0967C10.4402 29.5743 9.55212 29.0485 8.65277 28.5433C8.4491 28.4289 8.38429 28.298 8.3876 28.0745C8.39884 27.2479 8.39223 26.4212 8.39289 25.5946C8.39289 25.4763 8.39289 25.3586 8.39289 25.1536C7.40956 25.7203 6.48971 26.25 5.58772 26.7691C4.71879 26.2678 3.85912 25.7573 2.98357 25.2766C2.70716 25.1251 2.61458 24.9565 2.61524 24.6378C2.62714 19.1828 2.62383 13.7285 2.62383 8.28086C3.52252 7.75976 4.41856 7.24925 5.30402 6.72022C5.51101 6.59656 5.66773 6.59458 5.87273 6.71824C6.59816 7.15601 7.33351 7.57659 8.06621 8.00246C8.14954 8.05073 8.23815 8.09041 8.36247 8.15257V4.96319C9.36961 4.38258 10.3496 3.81784 11.3462 3.24385C12.2383 3.75766 13.1522 4.28405 14.1077 4.83358V1.64221C15.015 1.12046 15.8952 0.630445 16.7575 0.110013C17.024 -0.0513406 17.2164 -0.0255505 17.4737 0.124561C21.0228 2.18645 24.5785 4.2371 28.1329 6.29039C29.1427 6.87364 30.1525 7.4569 31.1636 8.03817C31.2965 8.11487 31.4341 8.18233 31.5822 8.26036C31.5822 9.33891 31.5888 10.4287 31.5716 11.5185C31.5703 11.6237 31.4453 11.7632 31.3415 11.8253C30.5665 12.2869 29.7815 12.7326 29.0005 13.1843C28.9456 13.216 28.8941 13.2544 28.7962 13.3192C29.7365 13.8608 30.6445 14.3832 31.5815 14.9228C31.5815 16.0086 31.5868 17.1322 31.5716 18.255C31.5703 18.3503 31.4486 18.4759 31.3514 18.5334C30.5195 19.0267 29.6803 19.5082 28.7863 20.0266C29.7398 20.5788 30.6471 21.1038 31.5822 21.6448L31.5828 21.6441ZM19.9475 21.8313C19.9092 21.701 19.8867 21.6613 19.8867 21.6216C19.8847 20.5748 19.8794 19.528 19.8926 18.4812C19.894 18.3893 19.9905 18.2663 20.0771 18.2134C21.0684 17.607 22.059 16.9986 23.0642 16.416C25.7675 14.8494 28.4768 13.2934 31.1874 11.74C31.362 11.6402 31.4387 11.535 31.436 11.3294C31.4255 10.4704 31.4327 9.6107 31.4301 8.75103C31.4301 8.67168 31.4089 8.59232 31.3944 8.48982C31.2727 8.5586 31.1867 8.60687 31.1014 8.65581C29.396 9.64112 27.6912 10.6264 25.9857 11.6111C23.213 13.2121 20.4402 14.813 17.6668 16.412C17.3434 16.5985 17.186 16.826 17.1873 17.2406C17.2045 22.3973 17.1986 27.554 17.1979 32.7101C17.1979 32.8483 17.1979 32.9865 17.1979 33.1597C17.3037 33.1128 17.3546 33.0949 17.4009 33.0685C21.9929 30.4167 26.5842 27.7623 31.1795 25.1152C31.3673 25.0074 31.4394 24.8924 31.436 24.6761C31.4241 23.8277 31.4327 22.9793 31.4314 22.1308C31.4314 22.0501 31.4109 21.9688 31.395 21.8537C27.5517 24.073 23.7453 26.2705 19.9039 28.4884C19.8933 28.3906 19.8847 28.3509 19.8847 28.3105C19.884 27.2637 19.8774 26.2169 19.8926 25.1708C19.894 25.0616 19.9978 24.9115 20.097 24.852C21.0029 24.3091 21.9155 23.7787 22.8307 23.2517C25.6141 21.6487 28.3981 20.0471 31.1867 18.4541C31.3798 18.3436 31.4387 18.2206 31.4354 18.009C31.4241 17.238 31.4308 16.4663 31.4308 15.6952C31.4308 15.5246 31.4308 15.354 31.4308 15.141C27.5788 17.3854 23.785 19.5955 19.9469 21.8319L19.9475 21.8313ZM5.51101 13.2055C5.57846 13.224 5.61152 13.226 5.63731 13.2405C6.55385 13.7649 7.47304 14.286 8.38231 14.8236C8.47026 14.8759 8.54102 15.0273 8.54697 15.1371C8.56681 15.5219 8.55557 15.9081 8.55557 16.2937C8.55358 20.1833 8.55358 24.0724 8.54366 27.962C8.54366 28.2001 8.60781 28.3383 8.82074 28.4567C9.54154 28.8574 10.2498 29.2813 10.9646 29.6933C11.0427 29.7383 11.1313 29.766 11.2642 29.8236V16.5496C12.1966 17.0879 13.0728 17.6123 13.9682 18.1003C14.2519 18.255 14.3345 18.4289 14.3332 18.7431C14.3167 22.9191 14.316 27.0944 14.3061 31.2705C14.3061 31.496 14.3392 31.6527 14.566 31.777C15.3179 32.1896 16.0539 32.6314 16.7978 33.0592C16.858 33.0936 16.9288 33.1101 17.0273 33.1472C17.0273 32.9898 17.0273 32.8701 17.0273 32.7504C17.0273 27.5937 17.0207 22.437 17.0392 17.281C17.0405 16.8405 16.8699 16.6018 16.5274 16.4041C12.03 13.8079 7.53388 11.2097 3.03714 8.61282C2.97432 8.57645 2.9029 8.55397 2.79577 8.50768C2.79577 8.66242 2.79577 8.78145 2.79577 8.90114C2.79577 14.1458 2.79775 19.3905 2.78982 24.6351C2.78982 24.8884 2.8619 25.0279 3.08806 25.1509C3.81283 25.5457 4.52239 25.9683 5.23856 26.3783C5.30998 26.4193 5.38933 26.4457 5.51167 26.4999V13.2061L5.51101 13.2055ZM2.89959 8.30995C3.03053 8.39195 3.10261 8.44023 3.17799 8.48387C7.68399 11.088 12.1926 13.6882 16.6927 16.3029C17.0008 16.4821 17.2197 16.4775 17.5252 16.3003C21.8838 13.7715 26.2502 11.2566 30.6141 8.73648C30.8356 8.60819 31.0505 8.46734 31.3005 8.3126C31.1907 8.24317 31.1279 8.20084 31.0631 8.16315C29.9389 7.51377 28.814 6.86571 27.6899 6.21566C24.2413 4.22189 20.7927 2.22877 17.3467 0.230367C17.1715 0.12919 17.0352 0.129852 16.862 0.233673C16.1623 0.650945 15.4548 1.05433 14.7498 1.463C14.65 1.52054 14.5521 1.58137 14.4079 1.66866C18.2626 3.89587 22.0636 6.09266 25.9189 8.31987C24.9627 8.87403 24.0654 9.38521 23.1786 9.91489C22.9478 10.0531 22.7673 10.0419 22.5411 9.90894C21.3838 9.22848 20.218 8.5619 19.0561 7.89004C16.5703 6.45306 14.0859 5.01345 11.5955 3.58375C11.4837 3.5196 11.2867 3.48257 11.1862 3.53746C10.3662 3.98647 9.5594 4.46061 8.74998 4.92946C8.72816 4.94203 8.72155 4.98237 8.70039 5.02535C12.5001 7.22016 16.2933 9.41232 20.1472 11.6389C19.9727 11.7493 19.8755 11.8148 19.7743 11.8736C18.994 12.3266 18.2064 12.7677 17.4353 13.2352C17.1979 13.3794 17.026 13.3794 16.7826 13.2379C13.1224 11.1059 9.45558 8.98513 5.78742 6.86637C5.7041 6.81809 5.5606 6.77776 5.49183 6.81611C4.64076 7.29488 3.79762 7.78886 2.90091 8.30929L2.89959 8.30995ZM5.71601 13.4872V26.5099C6.59089 26.0073 7.42146 25.5351 8.24344 25.0484C8.3142 25.0068 8.3671 24.8725 8.3671 24.7813C8.37305 21.5998 8.37305 18.4177 8.3671 15.2363C8.3671 15.1424 8.32213 15.0028 8.2527 14.9612C7.42411 14.4685 6.58692 13.9897 5.71601 13.4872ZM31.3494 14.9757C30.4805 14.4745 29.6962 14.0307 28.9218 13.5698C28.7182 13.4481 28.5614 13.4429 28.3531 13.5672C26.5895 14.616 24.8205 15.6549 23.0503 16.6931C22.1496 17.2214 21.2476 17.7485 20.3364 18.259C20.1334 18.3727 20.0646 18.5004 20.0679 18.7259C20.0798 19.5511 20.0719 20.3771 20.0738 21.203C20.0738 21.295 20.0877 21.3869 20.1003 21.5377C23.8584 19.3455 27.5708 17.1798 31.3494 14.9764V14.9757ZM11.4441 29.8593C12.3394 29.3388 13.178 28.8587 14.0052 28.3588C14.0866 28.3099 14.1315 28.1412 14.1322 28.0282C14.1388 24.9122 14.1355 21.7962 14.1421 18.6802C14.1421 18.4733 14.0707 18.3641 13.8948 18.2696C13.5073 18.0613 13.133 17.8298 12.7508 17.6109C12.3269 17.3682 11.9003 17.1289 11.4441 16.8703V29.8593ZM20.0732 28.1856C23.8557 26.0007 27.5649 23.8581 31.3058 21.697C31.202 21.6263 31.1424 21.5806 31.0776 21.5423C30.3562 21.1204 29.6294 20.7064 28.9139 20.2733C28.7082 20.1489 28.5561 20.1549 28.3478 20.2779C26.8963 21.131 25.4362 21.9681 23.9787 22.8106C22.76 23.5156 21.5392 24.2172 20.3251 24.93C20.2187 24.9922 20.0864 25.1278 20.0844 25.2309C20.0659 26.1878 20.0738 27.1447 20.0738 28.1849L20.0732 28.1856ZM14.3101 1.8234C14.3101 2.86824 14.3035 3.8357 14.3207 4.80316C14.322 4.89574 14.4522 5.01609 14.5521 5.07362C17.2535 6.64219 19.9574 8.20547 22.6674 9.75883C22.7706 9.81769 22.9663 9.80975 23.0734 9.75023C23.824 9.33495 24.5626 8.8985 25.3033 8.46668C25.3721 8.427 25.4316 8.37212 25.5248 8.30202C21.7866 6.14292 18.0854 4.00432 14.3101 1.82407V1.8234ZM19.8034 11.6475C16.036 9.47183 12.3196 7.32596 8.5516 5.15033C8.5516 6.19053 8.54631 7.15799 8.56086 8.12612C8.56218 8.21407 8.6779 8.32781 8.76916 8.3827C9.29687 8.70011 9.83383 9.0043 10.3675 9.31246C12.5306 10.561 14.693 11.8108 16.8593 13.054C16.9612 13.1122 17.1291 13.1783 17.2078 13.1347C18.0615 12.6619 18.9027 12.1679 19.8034 11.6481V11.6475Z" fill="#121F24"/>
<path d="M17.2224 34.0008V33.9215C17.0134 33.8844 16.8051 33.7919 16.5862 33.6437C16.0168 33.2582 15.3939 32.9176 14.7921 32.5876L14.5905 32.4772C14.2863 32.3106 14.1527 32.0752 14.1567 31.7161C14.1646 31.029 14.1633 30.3485 14.1619 29.6284C14.1619 29.5497 14.1619 29.4703 14.1619 29.391L11.6953 30.8108L11.5426 30.7222L11.4679 30.7658V30.6792C11.249 30.5515 11.0301 30.4246 10.8125 30.297C10.1691 29.9213 9.50451 29.5332 8.84653 29.1642C8.54564 28.9949 8.40743 28.7529 8.41206 28.4024C8.42066 27.8046 8.41934 27.1955 8.41802 26.607C8.41802 26.4245 8.41735 26.2413 8.41735 26.0588L6.19676 27.3397H6.19543L5.94348 27.4845L5.78147 27.3913L5.74047 27.4151V27.3681C5.51034 27.2352 5.28088 27.1023 5.05207 26.9687C4.44038 26.6129 3.80819 26.2453 3.18063 25.9007C2.80106 25.6924 2.6397 25.4147 2.64102 24.9716C2.65094 20.5013 2.65028 15.9576 2.64962 11.5634V8.65374L2.61523 8.63258L2.64896 8.61274V8.42493L2.81362 8.32905C3.05433 8.18952 3.29437 8.05131 3.53376 7.91244C4.17719 7.54079 4.84311 7.15659 5.48984 6.7704C5.80263 6.58391 6.09161 6.58325 6.39911 6.76907C6.9579 7.10633 7.53322 7.43896 8.08936 7.76166C8.18855 7.8192 8.28774 7.87673 8.38693 7.93426V5.10594L8.5754 4.99749V4.91086L8.65013 4.95385L11.7013 3.19549L14.1322 4.59543V2.01972L14.111 2.00716L14.1322 1.99459V1.78232L14.2982 1.68709C14.3101 1.68048 14.322 1.67321 14.3339 1.66659V1.58195L14.4073 1.62427C14.6248 1.49929 14.8411 1.37629 15.056 1.25395C15.7087 0.882309 16.325 0.530505 16.942 0.158202C17.3884 -0.111603 17.7249 0.0127188 17.9948 0.169443C20.9123 1.86432 23.8835 3.58035 26.7568 5.23952L28.6534 6.33527C29.6631 6.91853 30.6729 7.50112 31.6834 8.08305C31.7667 8.13132 31.8546 8.17695 31.9485 8.22523C31.9955 8.24969 32.0431 8.27416 32.092 8.29995L32.2679 8.39319V8.64117L32.2785 8.64779L32.2679 8.6544C32.2679 8.86799 32.2679 9.08159 32.2679 9.29519C32.2693 10.133 32.2699 10.9993 32.2567 11.855C32.2527 12.1361 31.9988 12.3609 31.8652 12.4409C31.2939 12.7808 30.7093 13.1174 30.1439 13.4434C30.0288 13.5096 29.9138 13.5757 29.7987 13.6425L32.0484 14.9373L32.2673 15.0636V15.3612C32.2673 15.5509 32.2673 15.7421 32.2673 15.9338C32.2679 16.8014 32.2693 17.6988 32.2567 18.5915C32.2534 18.8554 32.0147 19.067 31.8745 19.1503C31.233 19.5306 30.5942 19.9002 29.9177 20.2917C29.8787 20.3142 29.8404 20.3367 29.8013 20.3592L32.2679 21.7862V22.0434L32.2805 22.052L32.2679 22.0593C32.2679 22.3053 32.2679 22.5513 32.2666 22.798C32.2653 23.5538 32.264 24.3355 32.2739 25.1045C32.2779 25.4352 32.1443 25.6666 31.8533 25.8346L30.1022 26.8424C26.2311 29.0703 22.2283 31.3735 18.3056 33.6622C18.0946 33.7852 17.8989 33.8679 17.7117 33.9096V33.9585L17.6258 33.9261C17.5371 33.94 17.4505 33.9439 17.3639 33.9393L17.2224 34.0021V34.0008ZM11.2873 16.3081L11.7833 16.5945C12.0465 16.7466 12.3057 16.8973 12.5616 17.0468C13.2196 17.4303 13.8419 17.7927 14.4807 18.1412C14.8589 18.3475 15.0196 18.6266 15.0176 19.0756C15.0071 21.6996 15.0031 24.3685 14.9991 26.9489C14.9965 28.5002 14.9945 30.051 14.9905 31.6023C14.9905 31.7696 15.0038 31.7769 15.0785 31.8186C15.5943 32.1016 16.1094 32.4025 16.608 32.6928C16.7555 32.7788 16.903 32.8647 17.0504 32.95C17.0504 31.9191 17.0504 30.8881 17.0498 29.8565C17.0485 25.8425 17.0471 21.6923 17.0623 17.6102C17.0637 17.3159 16.979 17.1731 16.7158 17.021C14.0542 15.4848 11.3931 13.9473 8.73213 12.4105C6.9817 11.3994 5.23128 10.3883 3.48086 9.37718V11.8471C3.48086 16.1468 3.48086 20.5933 3.47491 24.967C3.47491 25.1131 3.4921 25.133 3.60055 25.1918C4.10048 25.4643 4.59975 25.7533 5.08183 26.033C5.2326 26.1203 5.38404 26.2082 5.53481 26.2949V13.1042L5.95208 13.2173C5.97126 13.2226 5.98713 13.2259 6.00036 13.2292C6.04334 13.2391 6.09624 13.251 6.15576 13.2847L6.63387 13.5578C7.3798 13.9837 8.15152 14.4248 8.90406 14.8698C9.10443 14.9882 9.22015 15.2514 9.23007 15.4504C9.24528 15.7447 9.2433 16.0396 9.24065 16.3253C9.23999 16.4252 9.23933 16.5244 9.23933 16.6242V18.6226C9.23669 21.7922 9.23536 25.0695 9.22743 28.2933C9.22743 28.4335 9.24594 28.4487 9.33456 28.4976C9.81862 28.7667 10.3033 29.0498 10.7722 29.3235C10.9435 29.4234 11.1154 29.5239 11.2873 29.6238V16.3068V16.3081ZM31.4552 9.37057L29.6578 10.4095C28.6077 11.0165 27.5569 11.6236 26.5062 12.23L25.9361 12.5593C23.3532 14.0505 20.7708 15.5417 18.1865 17.0309C17.9452 17.1704 17.8718 17.2967 17.8724 17.5718C17.8863 21.6771 17.885 25.8511 17.8837 29.8876C17.8837 30.9067 17.8837 31.9264 17.8837 32.9454L20.5123 31.4271C24.07 29.3718 27.7487 27.2471 31.3699 25.1614C31.4625 25.1085 31.4625 25.0992 31.4612 25.0133C31.4532 24.4505 31.4546 23.8798 31.4559 23.3277C31.4559 23.1313 31.4565 22.9349 31.4565 22.7378L19.9859 29.3606L19.9303 28.8573C19.9264 28.8236 19.9231 28.7972 19.9204 28.7753C19.9145 28.7297 19.9092 28.69 19.9092 28.6431V28.0248C19.9065 27.1968 19.9052 26.3411 19.9171 25.498C19.9204 25.2494 20.1076 25.0047 20.2821 24.9002C21.2807 24.3017 22.27 23.7291 23.0212 23.2966C25.6796 21.7664 28.5138 20.135 31.3785 18.4983C31.4565 18.454 31.4625 18.448 31.4605 18.3449C31.4519 17.7801 31.4532 17.2075 31.4546 16.654C31.4546 16.4516 31.4552 16.2499 31.4552 16.0476L20.1043 22.6604L19.9846 22.257C19.9713 22.2114 19.9601 22.1784 19.9515 22.1526C19.9317 22.093 19.9105 22.0322 19.9105 21.9535V21.564C19.9072 20.6614 19.9052 19.7283 19.9158 18.8091C19.9184 18.5869 20.0904 18.366 20.259 18.2629L20.4878 18.1227C21.3891 17.5712 22.3215 17.0011 23.2533 16.4615C26.1378 14.7898 28.9787 13.1597 31.3778 11.7849C31.4612 11.7373 31.4612 11.736 31.4605 11.6652C31.4532 11.1018 31.4539 10.5298 31.4546 9.97697C31.4546 9.77462 31.4552 9.57292 31.4552 9.37057ZM12.1285 17.7682V29.6165C12.1582 29.5993 12.1873 29.5821 12.2171 29.5649C12.8843 29.1781 13.5159 28.8124 14.1428 28.4341C14.1494 28.4123 14.1553 28.3825 14.1553 28.3581C14.1586 26.8001 14.1593 25.2427 14.1606 23.6848C14.1613 22.1268 14.1619 20.5688 14.1659 19.0101C14.1659 18.9572 14.1414 18.9176 14.0925 18.8911C13.8372 18.7542 13.586 18.6061 13.3433 18.4632C13.2097 18.3846 13.0754 18.3059 12.9405 18.2285C12.6734 18.0751 12.4042 17.9243 12.1285 17.7682ZM20.7675 25.6151C20.7543 26.3339 20.7556 27.0527 20.7569 27.8125C20.7569 27.8561 20.7569 27.9005 20.7569 27.9441L31.0194 22.0163C30.8806 21.9357 30.7417 21.855 30.6028 21.7743C30.1075 21.4873 29.5957 21.1904 29.0964 20.8882C29.0065 20.834 28.986 20.826 28.8689 20.8948C27.7791 21.5349 26.6669 22.177 25.5909 22.798C25.2266 23.0083 24.8622 23.2186 24.4985 23.4288L23.7665 23.8514C22.8076 24.4049 21.817 24.9776 20.8469 25.5469C20.8178 25.5641 20.7854 25.5939 20.7675 25.6151ZM6.40043 14.3911V26.2704L6.45796 26.2373C7.1252 25.8551 7.75607 25.4934 8.38693 25.1204C8.38826 25.1151 8.38958 25.1105 8.39024 25.1072C8.39619 21.9972 8.39619 18.786 8.39024 15.5688C8.39024 15.5635 8.38892 15.5556 8.38627 15.547C7.74879 15.1687 7.11462 14.803 6.44342 14.4162L6.40043 14.3911ZM28.9886 14.1378C28.9569 14.1378 28.9258 14.153 28.8762 14.1821C27.057 15.2639 25.2583 16.32 23.5714 17.3086C22.6542 17.8463 21.7561 18.3713 20.8522 18.8779C20.7583 18.9301 20.751 18.9433 20.7523 19.0511C20.7603 19.6093 20.7596 20.1753 20.7589 20.7222C20.7589 20.9173 20.7589 21.1124 20.7589 21.3074L31.0446 15.3083C30.9745 15.2679 30.9044 15.2276 30.8356 15.1879C30.2358 14.8434 29.6698 14.5187 29.1077 14.1841C29.0548 14.153 29.0224 14.1371 28.9899 14.1371L28.9886 14.1378ZM3.9021 8.64779L6.55716 10.182C10.0514 12.2002 13.664 14.2872 17.2125 16.3491C17.4141 16.4662 17.508 16.4662 17.713 16.3465C20.9619 14.4611 24.2697 12.5527 27.4683 10.707C28.58 10.0656 29.6909 9.42414 30.8025 8.78269C30.8753 8.74037 30.9487 8.69606 31.0227 8.65043C30.62 8.41766 30.2166 8.18555 29.8139 7.95278C29.1685 7.58047 28.5231 7.20817 27.8777 6.8352L27.1304 6.40338C23.9847 4.58485 20.7312 2.70415 17.5338 0.849906C17.4631 0.808907 17.4545 0.808907 17.3837 0.851229C16.8845 1.14881 16.3733 1.44374 15.8793 1.72942C15.7239 1.81869 15.5692 1.90862 15.4144 1.99856L26.9314 8.65308L26.4374 8.93941C26.1742 9.09217 25.915 9.24162 25.6597 9.38909C24.9819 9.77991 24.3418 10.1496 23.701 10.5318C23.3737 10.7275 23.0642 10.7262 22.7263 10.5272C21.9036 10.0438 21.0631 9.55904 20.2497 9.09019C19.9145 8.89709 19.5785 8.70333 19.2433 8.50958L17.8215 7.68694C15.8436 6.54291 13.7989 5.35987 11.784 4.20329C11.7562 4.18741 11.7033 4.17485 11.6729 4.17419C11.003 4.54186 10.3298 4.93268 9.67843 5.31028L9.65594 5.3235L21.1398 11.9582L20.6769 12.2505C20.6161 12.2888 20.5652 12.3219 20.5195 12.351C20.4329 12.4065 20.3648 12.4502 20.2927 12.4918C20.0566 12.6287 19.8206 12.7643 19.5838 12.9005C19.0482 13.208 18.4947 13.5261 17.959 13.8508C17.6205 14.0564 17.3143 14.0578 16.9684 13.8561C13.217 11.6712 9.46748 9.50283 5.9739 7.48525C5.96597 7.48062 5.95473 7.47599 5.94348 7.47202C5.29212 7.83904 4.64935 8.21266 3.97021 8.60745L3.90011 8.64779H3.9021ZM9.24528 8.39187C9.25851 8.4051 9.27703 8.42097 9.29422 8.43089C9.69363 8.67093 10.1063 8.90833 10.5057 9.1378C10.6327 9.2112 10.7603 9.28394 10.8873 9.35735L11.862 9.9201C13.6693 10.9636 15.5381 12.0422 17.3784 13.0989C17.4102 13.1168 17.4432 13.1313 17.4684 13.1399C18.1111 12.7828 18.744 12.4158 19.4132 12.0283C19.441 12.0117 19.4694 11.9959 19.4972 11.9793L9.23603 6.05422C9.23603 6.0853 9.23603 6.11572 9.23603 6.1468C9.23536 6.92249 9.2347 7.65586 9.24528 8.39187ZM23.1759 9.79776C23.2004 9.80305 23.2513 9.79975 23.2712 9.79115C23.8802 9.45389 24.4972 9.09349 25.0943 8.745L25.2517 8.65308L14.9945 2.72796C14.9945 2.76367 14.9945 2.79938 14.9945 2.83442C14.9932 3.60614 14.9925 4.3362 15.0044 5.06693C15.0216 5.08412 15.0474 5.10528 15.0719 5.11917C18.2183 6.94564 20.794 8.43287 23.1759 9.79776Z" fill="#121F24"/>
</svg>
